<mxfile host="app.diagrams.net" modified="2022-05-17T15:12:04.582Z" agent="5.0 (X11)" etag="x0E47hpVy1WfD0USwhpI" version="18.0.5" type="github">
  <diagram id="X_zxapgxoW0TpCZv9Ah9" name="Page-1">
    <mxGraphModel dx="1229" dy="779" grid="1" gridSize="10" guides="1" tooltips="1" connect="1" arrows="1" fold="1" page="1" pageScale="1" pageWidth="1200" pageHeight="1600" math="0" shadow="0">
      <root>
        <mxCell id="0" />
        <mxCell id="1" parent="0" />
        <mxCell id="NgneNE5UnlLHLdo33MgD-6" value="" style="group" parent="1" vertex="1" connectable="0">
          <mxGeometry x="110" y="40" width="740" height="100" as="geometry" />
        </mxCell>
        <mxCell id="NgneNE5UnlLHLdo33MgD-1" value="&lt;div&gt;All Data&lt;/div&gt;" style="rounded=0;whiteSpace=wrap;html=1;fillColor=#f5f5f5;fontColor=#333333;strokeColor=#666666;" parent="NgneNE5UnlLHLdo33MgD-6" vertex="1">
          <mxGeometry width="740" height="40" as="geometry" />
        </mxCell>
        <mxCell id="NgneNE5UnlLHLdo33MgD-3" value="&lt;div&gt;Training Data&lt;/div&gt;" style="rounded=0;whiteSpace=wrap;html=1;fillColor=#d5e8d4;strokeColor=#82b366;" parent="NgneNE5UnlLHLdo33MgD-6" vertex="1">
          <mxGeometry y="60" width="570" height="40" as="geometry" />
        </mxCell>
        <mxCell id="NgneNE5UnlLHLdo33MgD-4" value="&lt;div&gt;Test Data (Segment 26)&lt;br&gt;&lt;/div&gt;" style="rounded=0;whiteSpace=wrap;html=1;fillColor=#dae8fc;strokeColor=#6c8ebf;" parent="NgneNE5UnlLHLdo33MgD-6" vertex="1">
          <mxGeometry x="576.9491525423729" y="60" width="163.05084745762713" height="40" as="geometry" />
        </mxCell>
        <mxCell id="NgneNE5UnlLHLdo33MgD-35" value="&lt;font style=&quot;font-size: 18px&quot;&gt;Cross Validation&lt;/font&gt;" style="text;html=1;align=center;verticalAlign=middle;whiteSpace=wrap;rounded=0;fillColor=#cdeb8b;strokeColor=#36393d;" parent="1" vertex="1">
          <mxGeometry x="110" y="200" width="570" height="30" as="geometry" />
        </mxCell>
        <mxCell id="NgneNE5UnlLHLdo33MgD-37" value="" style="endArrow=classic;html=1;rounded=0;fontSize=18;exitX=0.5;exitY=1;exitDx=0;exitDy=0;entryX=0.5;entryY=0;entryDx=0;entryDy=0;strokeWidth=4;" parent="1" source="NgneNE5UnlLHLdo33MgD-3" target="NgneNE5UnlLHLdo33MgD-35" edge="1">
          <mxGeometry width="50" height="50" relative="1" as="geometry">
            <mxPoint x="520" y="300" as="sourcePoint" />
            <mxPoint x="570" y="250" as="targetPoint" />
          </mxGeometry>
        </mxCell>
        <mxCell id="NgneNE5UnlLHLdo33MgD-145" value="" style="group" parent="1" vertex="1" connectable="0">
          <mxGeometry x="110" y="250" width="570" height="320" as="geometry" />
        </mxCell>
        <mxCell id="NgneNE5UnlLHLdo33MgD-23" value="0,1" style="rounded=0;whiteSpace=wrap;html=1;fillColor=#e1d5e7;strokeColor=#9673a6;" parent="NgneNE5UnlLHLdo33MgD-145" vertex="1">
          <mxGeometry y="50" width="110" height="30" as="geometry" />
        </mxCell>
        <mxCell id="NgneNE5UnlLHLdo33MgD-32" value="&lt;div&gt;2 - 25&lt;/div&gt;" style="rounded=0;whiteSpace=wrap;html=1;fillColor=#ffe6cc;strokeColor=#d79b00;" parent="NgneNE5UnlLHLdo33MgD-145" vertex="1">
          <mxGeometry x="120" y="50" width="450" height="30" as="geometry" />
        </mxCell>
        <mxCell id="NgneNE5UnlLHLdo33MgD-33" value="Test" style="rounded=0;whiteSpace=wrap;html=1;fillColor=#e1d5e7;strokeColor=#9673a6;" parent="NgneNE5UnlLHLdo33MgD-145" vertex="1">
          <mxGeometry width="50" height="30" as="geometry" />
        </mxCell>
        <mxCell id="NgneNE5UnlLHLdo33MgD-34" value="Train" style="rounded=0;whiteSpace=wrap;html=1;fillColor=#ffe6cc;strokeColor=#d79b00;" parent="NgneNE5UnlLHLdo33MgD-145" vertex="1">
          <mxGeometry x="60" width="50" height="30" as="geometry" />
        </mxCell>
        <mxCell id="NgneNE5UnlLHLdo33MgD-38" value="1,2" style="rounded=0;whiteSpace=wrap;html=1;fillColor=#e1d5e7;strokeColor=#9673a6;" parent="NgneNE5UnlLHLdo33MgD-145" vertex="1">
          <mxGeometry x="60" y="90" width="110" height="30" as="geometry" />
        </mxCell>
        <mxCell id="NgneNE5UnlLHLdo33MgD-39" value="&lt;div&gt;3 - 25&lt;/div&gt;" style="rounded=0;whiteSpace=wrap;html=1;fillColor=#ffe6cc;strokeColor=#d79b00;" parent="NgneNE5UnlLHLdo33MgD-145" vertex="1">
          <mxGeometry x="180" y="90" width="390" height="30" as="geometry" />
        </mxCell>
        <mxCell id="NgneNE5UnlLHLdo33MgD-52" value="0" style="rounded=0;whiteSpace=wrap;html=1;fillColor=#ffe6cc;strokeColor=#d79b00;" parent="NgneNE5UnlLHLdo33MgD-145" vertex="1">
          <mxGeometry y="90" width="50" height="30" as="geometry" />
        </mxCell>
        <mxCell id="NgneNE5UnlLHLdo33MgD-53" value="2,3" style="rounded=0;whiteSpace=wrap;html=1;fillColor=#e1d5e7;strokeColor=#9673a6;" parent="NgneNE5UnlLHLdo33MgD-145" vertex="1">
          <mxGeometry x="120" y="130" width="110" height="30" as="geometry" />
        </mxCell>
        <mxCell id="NgneNE5UnlLHLdo33MgD-54" value="&lt;div&gt;4 - 25&lt;br&gt;&lt;/div&gt;" style="rounded=0;whiteSpace=wrap;html=1;fillColor=#ffe6cc;strokeColor=#d79b00;" parent="NgneNE5UnlLHLdo33MgD-145" vertex="1">
          <mxGeometry x="240" y="130" width="330" height="30" as="geometry" />
        </mxCell>
        <mxCell id="NgneNE5UnlLHLdo33MgD-55" value="0,1" style="rounded=0;whiteSpace=wrap;html=1;fillColor=#ffe6cc;strokeColor=#d79b00;" parent="NgneNE5UnlLHLdo33MgD-145" vertex="1">
          <mxGeometry y="130" width="110" height="30" as="geometry" />
        </mxCell>
        <mxCell id="NgneNE5UnlLHLdo33MgD-79" value="3,4" style="rounded=0;whiteSpace=wrap;html=1;fillColor=#e1d5e7;strokeColor=#9673a6;" parent="NgneNE5UnlLHLdo33MgD-145" vertex="1">
          <mxGeometry x="180" y="170" width="100" height="30" as="geometry" />
        </mxCell>
        <mxCell id="NgneNE5UnlLHLdo33MgD-80" value="&lt;div&gt;5 - 25&lt;/div&gt;" style="rounded=0;whiteSpace=wrap;html=1;fillColor=#ffe6cc;strokeColor=#d79b00;" parent="NgneNE5UnlLHLdo33MgD-145" vertex="1">
          <mxGeometry x="290" y="170" width="280" height="30" as="geometry" />
        </mxCell>
        <mxCell id="NgneNE5UnlLHLdo33MgD-81" value="&lt;div&gt;0,1,2&lt;/div&gt;" style="rounded=0;whiteSpace=wrap;html=1;fillColor=#ffe6cc;strokeColor=#d79b00;" parent="NgneNE5UnlLHLdo33MgD-145" vertex="1">
          <mxGeometry y="170" width="170" height="30" as="geometry" />
        </mxCell>
        <mxCell id="NgneNE5UnlLHLdo33MgD-137" value="" style="endArrow=none;dashed=1;html=1;dashPattern=1 3;strokeWidth=6;rounded=0;fontSize=18;" parent="NgneNE5UnlLHLdo33MgD-145" edge="1">
          <mxGeometry width="50" height="50" relative="1" as="geometry">
            <mxPoint x="280" y="272" as="sourcePoint" />
            <mxPoint x="280" y="212" as="targetPoint" />
          </mxGeometry>
        </mxCell>
        <mxCell id="NgneNE5UnlLHLdo33MgD-141" value="0 - 23" style="rounded=0;whiteSpace=wrap;html=1;fillColor=#ffe6cc;strokeColor=#d79b00;" parent="NgneNE5UnlLHLdo33MgD-145" vertex="1">
          <mxGeometry y="290" width="460" height="30" as="geometry" />
        </mxCell>
        <mxCell id="NgneNE5UnlLHLdo33MgD-144" value="24,25" style="rounded=0;whiteSpace=wrap;html=1;fillColor=#e1d5e7;strokeColor=#9673a6;" parent="NgneNE5UnlLHLdo33MgD-145" vertex="1">
          <mxGeometry x="470" y="290" width="100" height="30" as="geometry" />
        </mxCell>
        <mxCell id="NgneNE5UnlLHLdo33MgD-151" value="&lt;font style=&quot;font-size: 12px&quot;&gt;Folds according to Segment ID&lt;/font&gt;" style="rounded=0;whiteSpace=wrap;html=1;fontSize=18;" parent="NgneNE5UnlLHLdo33MgD-145" vertex="1">
          <mxGeometry x="120" width="190" height="30" as="geometry" />
        </mxCell>
        <mxCell id="NgneNE5UnlLHLdo33MgD-146" value="Split 1" style="text;html=1;strokeColor=none;fillColor=none;align=center;verticalAlign=middle;whiteSpace=wrap;rounded=0;fontSize=12;" parent="1" vertex="1">
          <mxGeometry x="50" y="300" width="60" height="30" as="geometry" />
        </mxCell>
        <mxCell id="NgneNE5UnlLHLdo33MgD-147" value="Split 2" style="text;html=1;strokeColor=none;fillColor=none;align=center;verticalAlign=middle;whiteSpace=wrap;rounded=0;fontSize=12;" parent="1" vertex="1">
          <mxGeometry x="50" y="340" width="60" height="30" as="geometry" />
        </mxCell>
        <mxCell id="NgneNE5UnlLHLdo33MgD-148" value="Split 3" style="text;html=1;strokeColor=none;fillColor=none;align=center;verticalAlign=middle;whiteSpace=wrap;rounded=0;fontSize=12;" parent="1" vertex="1">
          <mxGeometry x="50" y="380" width="60" height="30" as="geometry" />
        </mxCell>
        <mxCell id="NgneNE5UnlLHLdo33MgD-149" value="Split 4" style="text;html=1;strokeColor=none;fillColor=none;align=center;verticalAlign=middle;whiteSpace=wrap;rounded=0;fontSize=12;" parent="1" vertex="1">
          <mxGeometry x="50" y="420" width="60" height="30" as="geometry" />
        </mxCell>
        <mxCell id="NgneNE5UnlLHLdo33MgD-150" value="&lt;div&gt;Split 24&lt;/div&gt;" style="text;html=1;strokeColor=none;fillColor=none;align=center;verticalAlign=middle;whiteSpace=wrap;rounded=0;fontSize=12;" parent="1" vertex="1">
          <mxGeometry x="40" y="540" width="70" height="30" as="geometry" />
        </mxCell>
        <mxCell id="NgneNE5UnlLHLdo33MgD-152" value="" style="shape=curlyBracket;whiteSpace=wrap;html=1;rounded=1;flipH=1;fontSize=12;strokeWidth=3;" parent="1" vertex="1">
          <mxGeometry x="700" y="200" width="20" height="370" as="geometry" />
        </mxCell>
        <mxCell id="NgneNE5UnlLHLdo33MgD-154" value="&lt;font style=&quot;font-size: 16px&quot;&gt;Find parameters&lt;/font&gt;" style="text;html=1;strokeColor=none;fillColor=none;align=center;verticalAlign=middle;whiteSpace=wrap;rounded=0;fontSize=12;" parent="1" vertex="1">
          <mxGeometry x="720" y="360" width="95" height="50" as="geometry" />
        </mxCell>
        <mxCell id="NgneNE5UnlLHLdo33MgD-157" value="&lt;div style=&quot;font-size: 16px&quot;&gt;&lt;font style=&quot;font-size: 16px&quot;&gt;Final evaluation&lt;br&gt;&lt;/font&gt;&lt;/div&gt;" style="rounded=0;whiteSpace=wrap;html=1;fillColor=#dae8fc;strokeColor=#6c8ebf;" parent="1" vertex="1">
          <mxGeometry x="889.9991525423729" y="540" width="163.05084745762713" height="40" as="geometry" />
        </mxCell>
        <mxCell id="NgneNE5UnlLHLdo33MgD-164" value="" style="endArrow=classic;html=1;rounded=0;fontSize=18;exitX=0.5;exitY=1;exitDx=0;exitDy=0;entryX=0;entryY=0.5;entryDx=0;entryDy=0;strokeWidth=4;" parent="1" source="NgneNE5UnlLHLdo33MgD-4" target="NgneNE5UnlLHLdo33MgD-157" edge="1">
          <mxGeometry width="50" height="50" relative="1" as="geometry">
            <mxPoint x="767.0699999999999" y="170" as="sourcePoint" />
            <mxPoint x="767.0699999999999" y="230" as="targetPoint" />
            <Array as="points">
              <mxPoint x="768" y="200" />
              <mxPoint x="860" y="200" />
              <mxPoint x="860" y="560" />
            </Array>
          </mxGeometry>
        </mxCell>
        <mxCell id="NgneNE5UnlLHLdo33MgD-165" value="" style="endArrow=classic;html=1;rounded=0;fontSize=18;exitX=1;exitY=0.5;exitDx=0;exitDy=0;entryX=0;entryY=0.5;entryDx=0;entryDy=0;strokeWidth=4;" parent="1" source="NgneNE5UnlLHLdo33MgD-154" target="NgneNE5UnlLHLdo33MgD-157" edge="1">
          <mxGeometry width="50" height="50" relative="1" as="geometry">
            <mxPoint x="927" y="365" as="sourcePoint" />
            <mxPoint x="927" y="425" as="targetPoint" />
            <Array as="points">
              <mxPoint x="860" y="385" />
              <mxPoint x="860" y="560" />
            </Array>
          </mxGeometry>
        </mxCell>
      </root>
    </mxGraphModel>
  </diagram>
</mxfile>
